HIERARCHY
ROOT Hips
{
	OFFSET -13.091600 -28.302996 44.698402
	CHANNELS 6 Xposition Yposition Zposition Zrotation Xrotation Yrotation
	JOINT Chest
	{
		OFFSET -0.673000 0.623899 5.369202
		CHANNELS 6 Xposition Yposition Zposition Zrotation Xrotation Yrotation
		JOINT Chest2
		{
			OFFSET 0.000000 0.000000 4.415001
			CHANNELS 6 Xposition Yposition Zposition Zrotation Xrotation Yrotation
			JOINT Neck
			{
				OFFSET 0.000000 0.000002 10.273300
				CHANNELS 6 Xposition Yposition Zposition Zrotation Xrotation Yrotation
				JOINT Head
				{
					OFFSET 0.000000 0.000000 2.173897
					CHANNELS 6 Xposition Yposition Zposition Zrotation Xrotation Yrotation
					End Site
					{
						OFFSET 0.000000 0.000000 9.961800
					}
				}
			}
			JOINT LeftCollar
			{
				OFFSET 2.359900 -0.565201 5.928101
				CHANNELS 6 Xposition Yposition Zposition Zrotation Xrotation Yrotation
				JOINT LeftShoulder
				{
					OFFSET 5.443700 0.000000 0.000000
					CHANNELS 6 Xposition Yposition Zposition Zrotation Xrotation Yrotation
					JOINT LeftElbow
					{
						OFFSET 0.000000 0.000000 -10.615799
						CHANNELS 6 Xposition Yposition Zposition Zrotation Xrotation Yrotation
						JOINT LeftWrist
						{
							OFFSET 0.000000 -0.000002 -13.110302
							CHANNELS 6 Xposition Yposition Zposition Zrotation Xrotation Yrotation
							End Site
							{
								OFFSET 0.000000 0.000000 -2.173901
							}
						}
					}
				}
			}
			JOINT RightCollar
			{
				OFFSET -2.636600 -1.718800 6.889698
				CHANNELS 6 Xposition Yposition Zposition Zrotation Xrotation Yrotation
				JOINT RightShoulder
				{
					OFFSET -4.139101 0.000000 0.000000
					CHANNELS 6 Xposition Yposition Zposition Zrotation Xrotation Yrotation
					JOINT RightElbow
					{
						OFFSET 0.000000 0.000000 -10.471802
						CHANNELS 6 Xposition Yposition Zposition Zrotation Xrotation Yrotation
						JOINT RightWrist
						{
							OFFSET 0.000000 0.000000 -12.281898
							CHANNELS 6 Xposition Yposition Zposition Zrotation Xrotation Yrotation
							End Site
							{
								OFFSET 0.000000 -0.000002 -2.173901
							}
						}
					}
				}
			}
		}
	}
	JOINT LeftHip
	{
		OFFSET 2.273400 0.176701 -2.518002
		CHANNELS 6 Xposition Yposition Zposition Zrotation Xrotation Yrotation
		JOINT LeftKnee
		{
			OFFSET 0.000000 -0.000002 -20.456402
			CHANNELS 6 Xposition Yposition Zposition Zrotation Xrotation Yrotation
			JOINT LeftAnkle
			{
				OFFSET 0.000000 -0.000002 -16.635300
				CHANNELS 6 Xposition Yposition Zposition Zrotation Xrotation Yrotation
				End Site
				{
					OFFSET 0.000000 -8.812399 0.000001
				}
			}
		}
	}
	JOINT RightHip
	{
		OFFSET -1.914800 0.018101 -2.699299
		CHANNELS 6 Xposition Yposition Zposition Zrotation Xrotation Yrotation
		JOINT RightKnee
		{
			OFFSET 0.000000 -0.000002 -20.148901
			CHANNELS 6 Xposition Yposition Zposition Zrotation Xrotation Yrotation
			JOINT RightAnkle
			{
				OFFSET 0.000000 -0.000002 -16.838301
				CHANNELS 6 Xposition Yposition Zposition Zrotation Xrotation Yrotation
				End Site
				{
					OFFSET 0.000000 -8.328398 0.000001
				}
			}
		}
	}
}
MOTION
Frames: 4
Frame Time: 0.041667
-9.364801 -10.687895 24.863205 3397.183315 18.804607 -4.532076 -0.673001 0.623895 5.369208 15.716805 36.685469 -9.505793 0.000001 -0.000001 4.415002 -12.917768 -1.195528 -0.694610 -0.000004 -0.000001 10.273300 -37.686293 22.927138 -8.878559 0.000001 -0.000010 2.173902 0.032196 -6.001195 -3.840232 2.359896 -0.565200 5.928104 -0.661066 18.633408 -30.628245 5.443698 -0.000001 0.000000 -49.441120 367.782847 -41.998639 -0.000001 -0.000002 -10.615793 579.582969 -174.637979 182.521274 -0.000000 -0.000006 -13.110300 -2042.999630 180.495289 -456.615577 -2.636604 -1.718799 6.889707 163.649434 -157.501977 180.689513 -4.139101 -0.000011 0.000002 166.593887 -210.324802 595.321037 0.000003 0.000001 -10.471798 48.957184 -9.144063 -359.050013 0.000001 -0.000001 -12.281893 28.217975 -1.088691 -6.736031 2.273394 0.176702 -2.518003 -413.914737 -146.012724 -76.682588 0.000003 -0.000008 -20.456394 730.659760 186.535349 -62.040275 -0.000004 -0.000005 -16.635300 -282.261993 3.187451 39.214869 -1.914799 0.018104 -2.699297 60.760181 214.976762 78.266339 0.000002 -0.000005 -20.148905 -715.176158 -188.117029 56.724393 -0.000000 -0.000002 -16.838303 1015.531104 1.370758 -26.134102
-9.233500 -10.832796 24.220303 3401.573652 19.985494 -5.325965 -0.672998 0.623891 5.369203 10.859645 37.984717 -7.289577 0.000004 0.000001 4.414999 -7.827832 -1.521885 -0.252588 0.000002 -0.000001 10.273302 -38.840619 22.779762 -7.437195 -0.000003 -0.000004 2.173896 -0.046710 -5.909076 -4.168322 2.359897 -0.565202 5.928106 -1.611622 20.016057 -28.360824 5.443696 -0.000005 0.000004 -48.432472 368.426961 -41.266289 0.000000 0.000001 -10.615795 581.032172 -170.685335 184.619125 -0.000002 -0.000006 -13.110301 -2031.762712 180.845159 -460.126130 -2.636603 -1.718799 6.889704 161.810132 -158.420924 176.607532 -4.139101 -0.000010 -0.000005 164.285939 -210.966430 597.243708 0.000002 0.000001 -10.471797 42.895972 -15.057926 -360.279665 -0.000003 -0.000003 -12.281899 30.123091 -4.679486 -8.192996 2.273400 0.176705 -2.518000 -413.100278 -146.764728 -72.018088 0.000001 -0.000010 -20.456398 731.743137 187.204010 -61.949823 -0.000005 -0.000007 -16.635300 -284.075900 4.073306 38.561865 -1.914801 0.018105 -2.699299 58.688277 214.228501 76.303697 0.000006 -0.000002 -20.148903 -713.842686 -184.597337 55.168667 -0.000000 -0.000001 -16.838301 1013.121522 2.091022 -27.993109
-9.069403 -10.956596 23.603901 3405.416480 20.765238 -5.957783 -0.673001 0.623895 5.369208 6.776523 39.396948 -5.337669 0.000002 -0.000003 4.415006 -3.506343 -1.809135 0.048082 -0.000002 -0.000001 10.273303 -39.095917 22.643841 -6.120539 0.000000 -0.000004 2.173899 -0.458110 -5.523507 -4.383715 2.359899 -0.565203 5.928100 -3.493172 20.483239 -25.876911 5.443698 -0.000002 0.000004 -46.034819 369.594841 -38.717781 0.000000 0.000001 -10.615792 582.468424 -166.053865 187.170338 0.000000 -0.000009 -13.110301 -2021.020846 181.534803 -463.433362 -2.636601 -1.718803 6.889696 161.306843 -160.830656 173.558481 -4.139104 -0.000009 0.000003 162.274066 -210.543791 598.583900 0.000001 -0.000003 -10.471799 35.820364 -21.705370 -363.106926 0.000001 -0.000005 -12.281896 31.245762 -7.691419 -8.139004 2.273395 0.176705 -2.518004 -412.003950 -147.440507 -67.912824 0.000000 -0.000008 -20.456394 732.726466 187.599492 -61.881705 -0.000005 -0.000003 -16.635300 -286.160283 4.953158 37.904565 -1.914799 0.018103 -2.699303 57.470619 213.868154 75.001242 0.000004 -0.000000 -20.148903 -712.709968 -181.367983 53.596590 -0.000001 -0.000001 -16.838303 1011.324909 3.049201 -29.219191
-8.882900 -11.061895 23.023598 3409.073090 21.699513 -6.496683 -0.673002 0.623898 5.369208 3.097502 40.435263 -3.374908 0.000002 -0.000000 4.415004 0.884323 -2.062106 0.427009 -0.000001 -0.000002 10.273302 -39.242114 22.812900 -5.259212 -0.000001 -0.000004 2.173904 -0.943489 -5.228008 -4.323240 2.359896 -0.565204 5.928104 -4.575049 21.476657 -23.017340 5.443697 0.000000 0.000002 -44.309790 370.905992 -37.381113 -0.000001 -0.000003 -10.615791 583.170567 -161.415866 189.456976 0.000001 -0.000007 -13.110300 -2010.444216 183.095911 -464.836447 -2.636603 -1.718804 6.889701 158.883259 -161.363246 169.416422 -4.139105 -0.000008 -0.000001 160.233205 -211.103730 602.090137 0.000002 0.000001 -10.471795 27.597238 -29.017024 -368.395788 0.000003 -0.000000 -12.281899 32.117783 -10.265781 -8.789526 2.273399 0.176708 -2.518003 -410.651873 -148.190899 -63.815489 0.000000 -0.000007 -20.456398 733.978139 188.241981 -61.891684 -0.000007 -0.000008 -16.635296 -287.861847 5.721644 37.387854 -1.914797 0.018110 -2.699299 56.520512 213.676540 73.843532 0.000003 0.000000 -20.148903 -712.219287 -178.071405 52.014206 -0.000004 0.000001 -16.838303 1009.423713 3.739212 -30.731418
